<svg width="114" height="114" viewBox="0 0 114 114" fill="none" xmlns="http://www.w3.org/2000/svg">
<path d="M50.5745 55.398L50.5741 55.3976V53.7072L50.5777 53.712L73.9677 82.9548V82.9544V82.9548L73.9681 82.9532L76.2013 77.2156C80.3913 72.8392 94.3865 57.4532 95.0553 46.5228C93.4593 46.9516 91.9385 47.2688 90.4865 47.5016L85.9037 40.5208C84.8761 33.7812 82.5613 27.8288 78.6653 21.8884L77.2729 19.7656L75.4781 21.562C75.2453 21.7952 75.0225 22.0276 74.7969 22.2604C74.7573 22.258 74.7281 22.2596 74.7037 22.2636C71.7413 17.6476 65.5101 14.4576 58.2789 14.4576C58.2733 14.4576 58.2681 14.4584 58.2621 14.4584L57.3169 10.5996C57.3169 10.5996 57.3101 10.6004 57.3097 10.6004C57.1637 10.6084 37.4817 11.694 30.0189 28.91C29.5249 30.0312 29.0985 31.2332 28.7265 32.4948C28.7029 32.5744 28.6761 32.6504 28.6529 32.7308C28.5209 33.1896 28.4073 33.67 28.2917 34.148C28.2409 34.3584 28.1801 34.5576 28.1325 34.772C28.1053 34.8952 28.0881 35.0132 28.0621 35.1356C28.0173 35.3444 27.9829 35.5484 27.9417 35.7556C25.3365 48.8276 29.2897 58.7292 33.8329 65.3128C33.8129 67.8956 33.1901 69.4948 32.7353 70.2928C32.6333 70.4556 32.5253 70.6184 32.4089 70.7816H29.9293L24.8969 80.9376H23.1625L18.6049 90.1348L18.6053 90.1344C18.6037 90.138 18.6017 90.1412 18.6001 90.1448C24.3337 86.5288 31.1185 84.4288 38.3981 84.4288C44.0757 84.4288 49.4533 85.7064 54.2665 87.9824C60.0785 90.7304 65.0577 94.942 68.7413 100.14C69.4093 101.082 70.0341 102.057 70.6137 103.062H74.0393H80.7301L50.5745 55.398ZM66.5473 67.8928L64.5717 65.4228L64.6969 65.262L65.2677 64.5296L73.0401 54.5596C74.1241 54.738 75.3049 54.9076 76.5557 55.054L66.8625 67.4884L66.5473 67.8928ZM69.8285 71.9948L67.8529 69.5252L68.2937 68.96L69.2445 67.7404L78.9461 55.296C80.1669 55.396 81.4285 55.4592 82.7029 55.4816L70.4593 71.1864L69.8285 71.9948ZM89.4949 55.0804L74.0565 74.884L73.1105 76.0976L71.1349 73.6276L71.8909 72.6576L73.1517 71.04L85.2993 55.458C86.7145 55.4064 88.1237 55.2892 89.4949 55.0804ZM71.0877 40.3656L71.2585 38.0544L72.2985 38.888C73.0069 39.4752 74.4925 40.6888 76.6253 41.8636C76.6253 41.8636 76.6257 41.8636 76.6257 41.864C78.0909 42.6708 79.8589 43.454 81.9209 44.0052L82.7001 45.192L83.9489 47.094L84.5505 48.01C84.4281 48.0108 84.3093 48.0092 84.1885 48.0088C75.5253 47.9788 70.7589 44.8192 70.7589 44.8192L71.0877 40.3656ZM67.4409 53.4312C68.1101 53.5952 69.2281 53.8528 70.6717 54.1348L70.7473 54.194L63.5137 63.4728L63.2657 63.7908L61.2901 61.3212L67.4409 53.4312Z" fill="white"/>
</svg>
