<svg width="512" height="512" viewBox="0 0 512 512" fill="none" xmlns="http://www.w3.org/2000/svg">
<path d="M223.1 247.798L223.098 247.795V239.141L223.116 239.165L342.873 388.888V388.886V388.888L342.875 388.88L354.309 359.504C375.762 337.096 447.417 258.32 450.841 202.356C442.67 204.552 434.883 206.176 427.449 207.368L403.985 171.626C398.724 137.119 386.872 106.643 366.924 76.2283L359.795 65.3596L350.606 74.5572C349.414 75.7512 348.273 76.9411 347.118 78.133C346.916 78.1207 346.766 78.1289 346.641 78.1494C331.474 54.5155 299.57 38.1827 262.546 38.1827C262.517 38.1827 262.491 38.1868 262.46 38.1868L257.621 18.4297C257.621 18.4297 257.586 18.4338 257.584 18.4338C256.836 18.4747 156.064 24.033 117.855 112.179C115.326 117.919 113.142 124.074 111.238 130.533C111.117 130.941 110.98 131.33 110.861 131.741C110.185 134.09 109.603 136.55 109.012 138.998C108.752 140.075 108.44 141.095 108.197 142.192C108.057 142.823 107.969 143.427 107.836 144.054C107.607 145.123 107.431 146.168 107.22 147.228C93.881 214.157 114.121 264.853 137.383 298.561C137.28 311.785 134.091 319.973 131.763 324.059C131.241 324.892 130.688 325.726 130.092 326.562H117.396L91.6303 378.56H82.7501L59.4152 425.65L59.4173 425.648C59.4091 425.666 59.3988 425.683 59.3906 425.701C88.7467 407.187 123.485 396.435 160.756 396.435C189.826 396.435 217.359 402.977 242.003 414.63C271.76 428.699 297.254 450.263 316.114 476.874C319.534 481.702 322.733 486.693 325.7 491.837H343.239H377.496L223.1 247.798ZM304.88 311.771L294.765 299.124L295.406 298.301L298.329 294.551L338.123 243.505C343.674 244.418 349.719 245.287 356.123 246.036L306.494 309.7L304.88 311.771ZM321.68 332.773L311.565 320.129L313.822 317.235L318.69 310.991L368.362 247.275C374.613 247.787 381.072 248.111 387.597 248.226L324.91 328.634L321.68 332.773ZM422.372 246.171L343.327 347.566L338.484 353.779L328.369 341.133L332.24 336.167L338.695 327.885L400.891 248.105C408.136 247.841 415.352 247.24 422.372 246.171ZM328.127 170.832L329.002 158.998L334.326 163.266C337.953 166.273 345.56 172.486 356.48 178.501C356.48 178.501 356.482 178.501 356.482 178.503C363.984 182.634 373.036 186.644 383.593 189.466L387.583 195.543L393.976 205.281L397.057 209.971C396.43 209.975 395.822 209.967 395.203 209.965C350.848 209.811 326.444 193.634 326.444 193.634L328.127 170.832ZM309.456 237.727C312.882 238.567 318.606 239.886 325.997 241.33L326.384 241.633L289.348 289.14L288.079 290.769L277.963 278.124L309.456 237.727Z" fill="#222222"/>
</svg>
