<svg width="123" height="27" viewBox="0 0 123 27" fill="none" xmlns="http://www.w3.org/2000/svg">
<path d="M9.42494 13.0816V12.5878L9.42609 12.5892L16.3208 21.1283V21.1278L16.9789 19.4524C18.2141 18.1743 22.3395 13.6816 22.5367 10.4899C22.0663 10.6151 21.618 10.7077 21.1901 10.7759L19.8391 8.73734C19.5361 6.76924 18.8539 5.03114 17.7053 3.29645L17.2948 2.67658L16.7657 3.20104C16.6969 3.26919 16.6312 3.33706 16.565 3.40492C16.5533 3.40407 16.5447 3.40464 16.5375 3.40577C15.6644 2.05783 13.8275 1.12646 11.6958 1.12646C11.694 1.12646 11.6926 1.12674 11.6909 1.12674L11.4123 0C11.4123 0 11.4103 0.000285967 11.41 0.000285967C11.367 0.00255762 5.56524 0.319735 3.36523 5.3469C3.21962 5.6743 3.09406 6.02527 2.98428 6.39357C2.9774 6.41685 2.96937 6.439 2.96278 6.46257C2.9238 6.59659 2.89026 6.73687 2.85643 6.87629C2.84153 6.93791 2.82347 6.99584 2.80942 7.05859C2.8014 7.09465 2.79624 7.12901 2.78879 7.16479C2.7756 7.22584 2.76557 7.28519 2.75324 7.34596C1.98532 11.1632 3.15053 14.0544 4.48975 15.9768C4.48373 16.731 4.30027 17.1981 4.16612 17.431C4.13602 17.4784 4.10421 17.5261 4.06981 17.5738H3.33886L1.85546 20.5394H1.34495L0.00143463 23.2251C0.000861339 23.2262 0.000286647 23.2271 0 23.2282C1.69007 22.1725 3.69 21.5591 5.83584 21.5591C7.50957 21.5591 9.09472 21.9322 10.5136 22.5967C12.2269 23.3991 13.6945 24.629 14.7804 26.1467C14.9773 26.4219 15.1616 26.7067 15.3324 27H16.3423H18.3144L9.42494 13.0816ZM14.1334 16.7301L13.5509 16.0089L13.5879 15.962L13.7562 15.7482L16.0473 12.8368C16.3669 12.8888 16.7149 12.9385 17.0836 12.9811L14.2263 16.612L14.1334 16.7301ZM15.1005 17.9279L14.5181 17.2066L14.6479 17.0416L14.9283 16.6856L17.7881 13.0518C18.1479 13.081 18.52 13.0995 18.8955 13.106L15.2863 17.6919L15.1005 17.9279ZM20.8977 12.989L16.3469 18.7718L16.068 19.1262L15.4855 18.4049L15.7085 18.1218L16.0803 17.6493L19.6611 13.0992C20.0782 13.0841 20.4935 13.0498 20.8977 12.989ZM15.4718 8.69191L15.5219 8.01694L15.8286 8.2603C16.0376 8.43181 16.4753 8.78618 17.1042 9.1292C17.1042 9.1292 17.1042 9.1292 17.1045 9.1292C17.5365 9.36489 18.0576 9.59347 18.6653 9.75447L18.8949 10.1009L19.2629 10.6563L19.4401 10.9238C19.404 10.9241 19.369 10.9235 19.3335 10.9235C16.7797 10.9147 15.3749 9.99215 15.3749 9.99215L15.4718 8.69191ZM14.3968 12.5074C14.594 12.5551 14.9237 12.6307 15.3491 12.7127L15.3714 12.7301L13.2391 15.4396L13.166 15.5324L12.5835 14.8112L14.3968 12.5074Z" fill="#222222"/>
<path d="M31.6118 9.53064H29.541V17.4686H31.6118V9.53064Z" fill="#222222"/>
<path d="M39.7448 15.6144H39.6981L37.2062 9.53064H34.2349V17.4686H36.0364V11.7089H36.0832L38.4812 17.4686H40.7274L43.114 11.7089H43.1608V17.4686H45.2315V9.53064H42.2713L39.7448 15.6144Z" fill="#222222"/>
<path d="M55.3816 10.2255C54.6096 9.59992 53.4513 9.53064 51.8954 9.53064H47.8594V17.4686H49.9301V15.7007V15.2319V13.7142V12.0155V11.0484H51.8366C53.2406 11.0484 54.118 11.1526 54.118 12.358C54.118 13.4243 53.4865 13.7139 51.8601 13.7139H51.1335V15.2316H51.4278C53.3928 15.2316 54.4227 15.151 55.2881 14.5135C55.9316 14.0614 56.224 13.3311 56.224 12.3347C56.2237 11.3962 55.9546 10.6895 55.3816 10.2255Z" fill="#222222"/>
<path d="M60.3823 14.1773H64.7106V12.6479H60.3823V11.1063H65.0618V9.53064H58.3115V17.4686H65.2604V15.881H60.3823V14.1773Z" fill="#222222"/>
<path d="M74.7873 14.0731C75.4188 13.6443 75.7112 13.0304 75.7112 12.0916C75.7112 11.2108 75.442 10.5966 74.8573 10.1681C74.0853 9.59992 72.9508 9.53064 71.3828 9.53064H67.4873V17.4686H69.558V15.7007V14.7455V13.297V12.0155V11.0484H71.3946C72.7633 11.0484 73.6055 11.1182 73.6055 12.1496C73.6055 13.0997 72.974 13.297 71.4178 13.297H70.7611V14.7455C70.7611 14.7455 71.2659 14.7455 71.4531 14.7336L73.594 17.4686H76.0973L73.7107 14.5019C74.1323 14.4209 74.495 14.2818 74.7873 14.0731Z" fill="#222222"/>
<path d="M82.0116 15.5914H81.9531L79.0869 9.53064H76.7588L80.7716 17.4686H83.088L87.0887 9.53064H84.866L82.0116 15.5914Z" fill="#222222"/>
<path d="M90.6279 9.53064H88.5571V17.4686H90.6279V9.53064Z" fill="#222222"/>
<path d="M101.65 10.1681C100.678 9.54195 99.4387 9.36816 97.8358 9.36816C96.2569 9.36816 95.0046 9.53059 94.034 10.1681C92.9344 10.8862 92.5601 12.0916 92.5601 13.4938C92.5601 14.9079 92.9344 16.0897 94.034 16.8084C94.8776 17.3723 95.9282 17.5754 97.2401 17.6194V16.0062C95.4744 15.8685 94.6775 15.0797 94.6775 13.4356C94.6775 11.57 95.6716 10.9671 97.8475 10.9671C100.035 10.9671 101.006 11.7324 101.006 13.5517C101.006 15.2313 100.186 15.8935 98.4435 16.0093V17.6191C99.7443 17.5756 100.805 17.3738 101.65 16.8192C102.737 16.0894 103.124 14.9076 103.124 13.4935C103.124 12.0916 102.737 10.8978 101.65 10.1681Z" fill="#222222"/>
<path d="M111.717 13.911C111.717 14.5714 111.624 15.0814 111.273 15.4409C110.875 15.881 110.184 16.0315 109.354 16.0315C108.535 16.0315 107.833 15.858 107.436 15.429C107.073 15.0351 106.968 14.5019 106.968 13.8295V9.53064H104.897V13.9808C104.897 15.2788 105.061 16.1826 105.856 16.7965C106.768 17.5039 107.974 17.6311 109.331 17.6311C110.676 17.6311 111.858 17.5036 112.782 16.7965C113.589 16.1826 113.753 15.2788 113.753 13.9808V9.53064H111.717V13.911H111.717Z" fill="#222222"/>
<path d="M119.901 12.5553C119.327 12.4624 118.684 12.3812 118.24 12.2651C117.853 12.1725 117.713 11.9871 117.713 11.6512C117.713 11.338 117.83 11.1412 118.216 11.0483C118.578 10.9791 119.058 10.9558 119.479 10.9558C120.404 10.9558 121.561 11.037 122.498 11.1412V9.49566C121.456 9.42638 120.486 9.36816 119.514 9.36816C118.672 9.36816 117.713 9.42609 117.011 9.76201C116.087 10.2021 115.748 10.9558 115.748 11.8829C115.748 13.3776 116.648 13.9339 118.707 14.2701C119.315 14.3743 119.994 14.4669 120.45 14.583C120.848 14.6992 120.988 14.8846 120.988 15.2435C120.988 15.5794 120.895 15.7998 120.474 15.8926C120.122 15.9619 119.514 16.0082 118.812 16.0082C117.958 16.0082 116.73 15.9156 115.771 15.8114V17.5032C116.941 17.5725 117.993 17.6307 119.081 17.6307C119.982 17.6307 121.012 17.5379 121.725 17.19C122.649 16.7385 123.001 15.9733 123.001 15.0118C123.001 13.4012 121.96 12.8682 119.901 12.5553Z" fill="#222222"/>
</svg>
