<svg width="148" height="56" viewBox="0 0 148 56" fill="none" xmlns="http://www.w3.org/2000/svg">
<path d="M11.656 20.864V38H15.424V20.864H11.656ZM18.4701 25.592V38H21.8781V30.8C21.8781 30.192 21.9661 29.704 22.1421 29.336C22.3181 28.952 22.5261 28.664 22.7661 28.472C23.0221 28.264 23.2781 28.128 23.5341 28.064C23.8061 27.984 24.0221 27.944 24.1821 27.944C24.7261 27.944 25.1341 28.04 25.4061 28.232C25.6941 28.408 25.8941 28.648 26.0061 28.952C26.1341 29.256 26.2061 29.592 26.2221 29.96C26.2381 30.312 26.2461 30.672 26.2461 31.04V38H29.6541V31.088C29.6541 30.704 29.6781 30.328 29.7261 29.96C29.7901 29.576 29.9021 29.24 30.0621 28.952C30.2381 28.648 30.4701 28.408 30.7581 28.232C31.0621 28.04 31.4541 27.944 31.9341 27.944C32.4141 27.944 32.7901 28.024 33.0621 28.184C33.3501 28.344 33.5661 28.56 33.7101 28.832C33.8541 29.104 33.9421 29.424 33.9741 29.792C34.0061 30.16 34.0221 30.552 34.0221 30.968V38H37.4301V29.696C37.4301 28.896 37.3181 28.216 37.0941 27.656C36.8701 27.08 36.5581 26.616 36.1581 26.264C35.7581 25.912 35.2781 25.656 34.7181 25.496C34.1581 25.336 33.5501 25.256 32.8941 25.256C32.0301 25.256 31.2781 25.464 30.6381 25.88C30.0141 26.296 29.5181 26.776 29.1501 27.32C28.8141 26.552 28.3181 26.016 27.6621 25.712C27.0221 25.408 26.3101 25.256 25.5261 25.256C24.7101 25.256 23.9821 25.432 23.3421 25.784C22.7181 26.136 22.1821 26.632 21.7341 27.272H21.6861V25.592H18.4701ZM46.3881 35.768C45.8441 35.768 45.3801 35.656 44.9961 35.432C44.6121 35.208 44.3001 34.92 44.0601 34.568C43.8361 34.2 43.6681 33.776 43.5561 33.296C43.4601 32.816 43.4121 32.328 43.4121 31.832C43.4121 31.32 43.4601 30.824 43.5561 30.344C43.6521 29.864 43.8121 29.44 44.0361 29.072C44.2761 28.704 44.5801 28.408 44.9481 28.184C45.3321 27.944 45.8041 27.824 46.3641 27.824C46.9081 27.824 47.3641 27.944 47.7321 28.184C48.1161 28.408 48.4281 28.712 48.6681 29.096C48.9081 29.464 49.0761 29.888 49.1721 30.368C49.2841 30.848 49.3401 31.336 49.3401 31.832C49.3401 32.328 49.2921 32.816 49.1961 33.296C49.1001 33.776 48.9321 34.2 48.6921 34.568C48.4681 34.92 48.1641 35.208 47.7801 35.432C47.4121 35.656 46.9481 35.768 46.3881 35.768ZM40.1241 25.592V42.344H43.5321V36.464H43.5801C43.9961 37.072 44.5241 37.536 45.1641 37.856C45.8201 38.16 46.5321 38.312 47.3001 38.312C48.2121 38.312 49.0041 38.136 49.6761 37.784C50.3641 37.432 50.9321 36.96 51.3801 36.368C51.8441 35.776 52.1881 35.096 52.4121 34.328C52.6361 33.56 52.7481 32.76 52.7481 31.928C52.7481 31.048 52.6361 30.208 52.4121 29.408C52.1881 28.592 51.8441 27.88 51.3801 27.272C50.9161 26.664 50.3321 26.176 49.6281 25.808C48.9241 25.44 48.0841 25.256 47.1081 25.256C46.3401 25.256 45.6361 25.408 44.9961 25.712C44.3561 26.016 43.8281 26.504 43.4121 27.176H43.3641V25.592H40.1241ZM63.148 30.464H57.604C57.62 30.224 57.668 29.952 57.748 29.648C57.844 29.344 57.996 29.056 58.204 28.784C58.428 28.512 58.716 28.288 59.068 28.112C59.436 27.92 59.892 27.824 60.436 27.824C61.268 27.824 61.884 28.048 62.284 28.496C62.7 28.944 62.988 29.6 63.148 30.464ZM57.604 32.624H66.556C66.62 31.664 66.54 30.744 66.316 29.864C66.092 28.984 65.724 28.2 65.212 27.512C64.716 26.824 64.076 26.28 63.292 25.88C62.508 25.464 61.588 25.256 60.532 25.256C59.588 25.256 58.724 25.424 57.94 25.76C57.172 26.096 56.508 26.56 55.948 27.152C55.388 27.728 54.956 28.416 54.652 29.216C54.348 30.016 54.196 30.88 54.196 31.808C54.196 32.768 54.34 33.648 54.628 34.448C54.932 35.248 55.356 35.936 55.9 36.512C56.444 37.088 57.108 37.536 57.892 37.856C58.676 38.16 59.556 38.312 60.532 38.312C61.94 38.312 63.14 37.992 64.132 37.352C65.124 36.712 65.86 35.648 66.34 34.16H63.34C63.228 34.544 62.924 34.912 62.428 35.264C61.932 35.6 61.34 35.768 60.652 35.768C59.692 35.768 58.956 35.52 58.444 35.024C57.932 34.528 57.652 33.728 57.604 32.624ZM68.5773 25.592V38H71.9853V32.408C71.9853 31.848 72.0413 31.328 72.1533 30.848C72.2653 30.368 72.4493 29.952 72.7053 29.6C72.9773 29.232 73.3293 28.944 73.7613 28.736C74.1933 28.528 74.7213 28.424 75.3453 28.424C75.5533 28.424 75.7693 28.44 75.9933 28.472C76.2173 28.488 76.4093 28.512 76.5693 28.544V25.376C76.2973 25.296 76.0493 25.256 75.8253 25.256C75.3933 25.256 74.9773 25.32 74.5773 25.448C74.1773 25.576 73.8013 25.76 73.4492 26C73.0973 26.224 72.7853 26.504 72.5133 26.84C72.2413 27.16 72.0253 27.512 71.8653 27.896H71.8173V25.592H68.5773ZM84.7694 38L88.9694 25.592H85.5854L82.9694 34.064H82.9214L80.3054 25.592H76.7294L80.9774 38H84.7694ZM93.8781 23.672V20.864H90.4701V23.672H93.8781ZM90.4701 25.592V38H93.8781V25.592H90.4701ZM99.5856 31.808C99.5856 31.312 99.6336 30.824 99.7296 30.344C99.8256 29.864 99.9856 29.44 100.21 29.072C100.45 28.704 100.762 28.408 101.146 28.184C101.53 27.944 102.01 27.824 102.586 27.824C103.162 27.824 103.642 27.944 104.026 28.184C104.426 28.408 104.738 28.704 104.962 29.072C105.202 29.44 105.37 29.864 105.466 30.344C105.562 30.824 105.61 31.312 105.61 31.808C105.61 32.304 105.562 32.792 105.466 33.272C105.37 33.736 105.202 34.16 104.962 34.544C104.738 34.912 104.426 35.208 104.026 35.432C103.642 35.656 103.162 35.768 102.586 35.768C102.01 35.768 101.53 35.656 101.146 35.432C100.762 35.208 100.45 34.912 100.21 34.544C99.9856 34.16 99.8256 33.736 99.7296 33.272C99.6336 32.792 99.5856 32.304 99.5856 31.808ZM96.1776 31.808C96.1776 32.8 96.3296 33.696 96.6336 34.496C96.9376 35.296 97.3696 35.984 97.9296 36.56C98.4896 37.12 99.1616 37.552 99.9456 37.856C100.73 38.16 101.61 38.312 102.586 38.312C103.562 38.312 104.442 38.16 105.226 37.856C106.026 37.552 106.706 37.12 107.266 36.56C107.826 35.984 108.258 35.296 108.562 34.496C108.866 33.696 109.018 32.8 109.018 31.808C109.018 30.816 108.866 29.92 108.562 29.12C108.258 28.304 107.826 27.616 107.266 27.056C106.706 26.48 106.026 26.04 105.226 25.736C104.442 25.416 103.562 25.256 102.586 25.256C101.61 25.256 100.73 25.416 99.9456 25.736C99.1616 26.04 98.4896 26.48 97.9296 27.056C97.3696 27.616 96.9376 28.304 96.6336 29.12C96.3296 29.92 96.1776 30.816 96.1776 31.808ZM122.874 38V25.592H119.466V32.096C119.466 33.36 119.258 34.272 118.842 34.832C118.426 35.376 117.754 35.648 116.826 35.648C116.01 35.648 115.442 35.4 115.122 34.904C114.802 34.392 114.642 33.624 114.642 32.6V25.592H111.234V33.224C111.234 33.992 111.298 34.696 111.426 35.336C111.57 35.96 111.81 36.496 112.146 36.944C112.482 37.376 112.938 37.712 113.514 37.952C114.106 38.192 114.858 38.312 115.77 38.312C116.49 38.312 117.194 38.152 117.882 37.832C118.57 37.512 119.13 36.992 119.562 36.272H119.634V38H122.874ZM128.1 33.968H124.86C124.892 34.8 125.076 35.496 125.412 36.056C125.764 36.6 126.204 37.04 126.732 37.376C127.276 37.712 127.892 37.952 128.58 38.096C129.268 38.24 129.972 38.312 130.692 38.312C131.396 38.312 132.084 38.24 132.756 38.096C133.444 37.968 134.052 37.736 134.58 37.4C135.108 37.064 135.532 36.624 135.852 36.08C136.188 35.52 136.356 34.832 136.356 34.016C136.356 33.44 136.244 32.96 136.02 32.576C135.796 32.176 135.5 31.848 135.132 31.592C134.764 31.32 134.34 31.104 133.86 30.944C133.396 30.784 132.916 30.648 132.42 30.536C131.94 30.424 131.468 30.32 131.004 30.224C130.54 30.128 130.124 30.024 129.756 29.912C129.404 29.784 129.116 29.624 128.892 29.432C128.668 29.24 128.556 28.992 128.556 28.688C128.556 28.432 128.62 28.232 128.748 28.088C128.876 27.928 129.028 27.808 129.204 27.728C129.396 27.648 129.604 27.6 129.828 27.584C130.052 27.552 130.26 27.536 130.452 27.536C131.06 27.536 131.588 27.656 132.036 27.896C132.484 28.12 132.732 28.56 132.78 29.216H136.02C135.956 28.448 135.756 27.816 135.42 27.32C135.1 26.808 134.692 26.4 134.196 26.096C133.7 25.792 133.132 25.576 132.492 25.448C131.868 25.32 131.22 25.256 130.548 25.256C129.876 25.256 129.22 25.32 128.58 25.448C127.94 25.56 127.364 25.768 126.852 26.072C126.34 26.36 125.924 26.76 125.604 27.272C125.3 27.784 125.148 28.44 125.148 29.24C125.148 29.784 125.26 30.248 125.484 30.632C125.708 31 126.004 31.312 126.372 31.568C126.74 31.808 127.156 32.008 127.62 32.168C128.1 32.312 128.588 32.44 129.084 32.552C130.3 32.808 131.244 33.064 131.916 33.32C132.604 33.576 132.948 33.96 132.948 34.472C132.948 34.776 132.876 35.032 132.732 35.24C132.588 35.432 132.404 35.592 132.18 35.72C131.972 35.832 131.732 35.92 131.46 35.984C131.204 36.032 130.956 36.056 130.716 36.056C130.38 36.056 130.052 36.016 129.732 35.936C129.428 35.856 129.156 35.736 128.916 35.576C128.676 35.4 128.476 35.184 128.316 34.928C128.172 34.656 128.1 34.336 128.1 33.968Z" fill="black"/>
</svg>
