<svg width="282" height="80" viewBox="0 0 282 80" fill="none" xmlns="http://www.w3.org/2000/svg">
<path d="M138.761 32.8142V32.3682L138.762 32.3695L144.074 40.0813V40.0808L144.581 38.5677C145.532 37.4135 148.711 33.356 148.863 30.4736C148.5 30.5867 148.155 30.6703 147.825 30.7318L146.784 28.8908C146.551 27.1134 146.025 25.5437 145.14 23.9771L144.824 23.4173L144.417 23.8909C144.364 23.9525 144.313 24.0137 144.262 24.075C144.253 24.0743 144.246 24.0748 144.241 24.0758C143.568 22.8585 142.153 22.0173 140.511 22.0173C140.509 22.0173 140.508 22.0176 140.507 22.0176L140.292 21C140.292 21 140.291 21.0003 140.291 21.0003C140.257 21.0023 135.788 21.2888 134.093 25.8289C133.981 26.1245 133.884 26.4415 133.8 26.7741C133.794 26.7951 133.788 26.8151 133.783 26.8364C133.753 26.9575 133.727 27.0842 133.701 27.2101C133.69 27.2657 133.676 27.318 133.665 27.3747C133.659 27.4073 133.655 27.4383 133.649 27.4706C133.639 27.5258 133.631 27.5793 133.622 27.6342C133.03 31.0816 133.928 33.6927 134.959 35.4289C134.955 36.11 134.813 36.5318 134.71 36.7421C134.687 36.7849 134.662 36.828 134.636 36.8711H134.073L132.93 39.5494H132.537L131.502 41.9749C131.501 41.9759 131.501 41.9767 131.5 41.9777C132.803 41.0242 134.343 40.4703 135.996 40.4703C137.286 40.4703 138.507 40.8073 139.6 41.4074C140.92 42.1321 142.051 43.2427 142.887 44.6134C143.039 44.8619 143.181 45.1191 143.312 45.3841H144.09H145.61L138.761 32.8142ZM142.389 36.1092L141.94 35.4578L141.968 35.4155L142.098 35.2224L143.863 32.5931C144.109 32.64 144.378 32.6849 144.662 32.7234L142.46 36.0025L142.389 36.1092ZM143.134 37.1909L142.685 36.5395L142.785 36.3905L143.001 36.069L145.204 32.7872C145.481 32.8136 145.768 32.8303 146.057 32.8362L143.277 36.9778L143.134 37.1909ZM147.6 32.7306L144.094 37.9531L143.879 38.2731L143.43 37.6217L143.602 37.366L143.889 36.9393L146.647 32.8301C146.969 32.8165 147.288 32.7854 147.6 32.7306ZM143.42 28.8498L143.458 28.2402L143.695 28.46C143.856 28.6149 144.193 28.9349 144.677 29.2447C144.677 29.2447 144.677 29.2447 144.678 29.2447C145.01 29.4576 145.412 29.664 145.88 29.8094L146.057 30.1223L146.34 30.6239L146.477 30.8654C146.449 30.8657 146.422 30.8652 146.395 30.8652C144.427 30.8572 143.345 30.024 143.345 30.024L143.42 28.8498ZM142.592 32.2956C142.744 32.3387 142.998 32.4069 143.325 32.481L143.342 32.4967L141.7 34.9437L141.643 35.0275L141.195 34.3762L142.592 32.2956Z" fill="#222222"/>
<path d="M106.595 51.6843H105V58.8532H106.595V51.6843Z" fill="#222222"/>
<path d="M112.861 57.1787H112.825L110.906 51.6843H108.617V58.8532H110.005V53.6515H110.041L111.888 58.8532H113.618L115.457 53.6515H115.493V58.8532H117.088V51.6843H114.808L112.861 57.1787Z" fill="#222222"/>
<path d="M124.908 52.3118C124.313 51.7469 123.421 51.6843 122.222 51.6843H119.113V58.8532H120.708V57.2566V56.8332V55.4625V53.9285V53.055H122.177C123.258 53.055 123.934 53.1491 123.934 54.2377C123.934 55.2007 123.448 55.4623 122.195 55.4623H121.635V56.833H121.862C123.376 56.833 124.169 56.7601 124.836 56.1844C125.332 55.7762 125.557 55.1166 125.557 54.2167C125.557 53.3692 125.349 52.7309 124.908 52.3118Z" fill="#222222"/>
<path d="M128.76 55.8808H132.095V54.4996H128.76V53.1073H132.365V51.6843H127.165V58.8532H132.518V57.4195H128.76V55.8808Z" fill="#222222"/>
<path d="M139.858 55.7867C140.344 55.3994 140.569 54.845 140.569 53.9972C140.569 53.2017 140.362 52.647 139.912 52.26C139.317 51.7469 138.443 51.6843 137.235 51.6843H134.234V58.8532H135.829V57.2566V56.3939V55.0858V53.9285V53.055H137.244C138.298 53.055 138.947 53.1181 138.947 54.0495C138.947 54.9076 138.461 55.0858 137.262 55.0858H136.756V56.3939C136.756 56.3939 137.145 56.3939 137.289 56.3832L138.938 58.8532H140.867L139.028 56.1739C139.353 56.1008 139.633 55.9752 139.858 55.7867Z" fill="#222222"/>
<path d="M145.423 57.1579H145.378L143.17 51.6843H141.376L144.468 58.8532H146.252L149.335 51.6843H147.622L145.423 57.1579Z" fill="#222222"/>
<path d="M152.061 51.6843H150.465V58.8532H152.061V51.6843Z" fill="#222222"/>
<path d="M160.552 52.2601C159.804 51.6947 158.849 51.5377 157.614 51.5377C156.397 51.5377 155.433 51.6844 154.685 52.2601C153.838 52.9087 153.549 53.9973 153.549 55.2636C153.549 56.5407 153.838 57.608 154.685 58.2571C155.335 58.7664 156.144 58.9497 157.155 58.9895V57.5326C155.794 57.4083 155.181 56.6959 155.181 55.211C155.181 53.5262 155.946 52.9818 157.623 52.9818C159.308 52.9818 160.056 53.6729 160.056 55.3159C160.056 56.8328 159.424 57.4308 158.082 57.5354V58.9892C159.084 58.95 159.901 58.7677 160.552 58.2668C161.39 57.6078 161.688 56.5404 161.688 55.2633C161.688 53.9973 161.39 52.9192 160.552 52.2601Z" fill="#222222"/>
<path d="M168.308 55.6402C168.308 56.2367 168.236 56.6973 167.966 57.022C167.66 57.4195 167.128 57.5554 166.488 57.5554C165.857 57.5554 165.316 57.3987 165.01 57.0112C164.731 56.6555 164.649 56.1739 164.649 55.5666V51.6843H163.054V55.7033C163.054 56.8755 163.181 57.6918 163.793 58.2462C164.496 58.885 165.424 58.9999 166.47 58.9999C167.506 58.9999 168.417 58.8848 169.129 58.2462C169.75 57.6918 169.877 56.8755 169.877 55.7033V51.6843H168.309V55.6402H168.308Z" fill="#222222"/>
<path d="M174.612 54.4161C174.171 54.3322 173.675 54.2589 173.332 54.154C173.035 54.0704 172.927 53.9029 172.927 53.5995C172.927 53.3167 173.017 53.139 173.314 53.0551C173.594 52.9925 173.963 52.9715 174.287 52.9715C175 52.9715 175.891 53.0448 176.613 53.139V51.6529C175.81 51.5903 175.063 51.5377 174.315 51.5377C173.666 51.5377 172.926 51.59 172.386 51.8934C171.674 52.2909 171.413 52.9715 171.413 53.8088C171.413 55.1587 172.106 55.6611 173.693 55.9647C174.161 56.0588 174.684 56.1424 175.036 56.2473C175.342 56.3522 175.45 56.5197 175.45 56.8438C175.45 57.1472 175.378 57.3462 175.053 57.4301C174.783 57.4926 174.315 57.5344 173.774 57.5344C173.116 57.5344 172.17 57.4508 171.43 57.3567V58.8846C172.332 58.9472 173.143 58.9998 173.981 58.9998C174.675 58.9998 175.468 58.9159 176.018 58.6017C176.73 58.194 177 57.5029 177 56.6346C177 55.18 176.198 54.6987 174.612 54.4161Z" fill="#222222"/>
</svg>
