<svg width="282" height="80" viewBox="0 0 282 80" fill="none" xmlns="http://www.w3.org/2000/svg">
<mask id="mask0_8:154" style="mask-type:alpha" maskUnits="userSpaceOnUse" x="104" y="7" width="74" height="68">
<path d="M104.652 71.0361H106.755V61.0925H104.652V71.0361ZM110.872 71.0361V65.563C110.872 65.563 111.559 65.3019 112.223 65.3019C113.171 65.3019 113.291 65.9599 113.291 67.276V71.0361H115.339V67.2446C115.339 66.6806 115.274 65.5839 115.274 65.5839C115.274 65.5839 116.091 65.3019 116.701 65.3019C117.616 65.3019 117.768 66.0226 117.768 67.1297V71.0361H119.805V67.0775C119.805 64.7169 119.195 63.5471 117.125 63.5471C115.96 63.5471 114.565 64.2365 114.565 64.2365C114.108 63.7664 113.509 63.5471 112.659 63.5471C111.907 63.5471 110.851 64.132 110.851 64.132V63.7246H108.824V71.0361H110.872ZM121.624 74.107H123.661V71.0988C123.661 71.0988 124.37 71.2137 124.936 71.2137C127.267 71.2137 128.389 70.4408 128.389 67.3177C128.389 64.602 127.398 63.5471 125.394 63.5471C124.642 63.5471 123.651 64.1216 123.651 64.1216V63.7246H121.624V74.107ZM124.991 65.3019C125.797 65.3019 126.32 65.845 126.32 67.3177C126.32 68.874 126.004 69.5112 124.784 69.5112C124.348 69.5112 123.661 69.4276 123.661 69.4276V65.5943C123.661 65.5943 124.37 65.3019 124.991 65.3019ZM133.139 69.4903C132.039 69.4903 131.614 69.0934 131.592 68.216H136.08L136.233 66.8581C136.233 64.6438 135.154 63.5471 132.91 63.5471C130.677 63.5471 129.533 64.884 129.533 67.4849C129.533 70.117 130.514 71.2137 132.812 71.2137C134.239 71.2137 135.993 70.8064 135.993 70.8064L135.96 69.3545C135.96 69.3545 134.392 69.4903 133.139 69.4903ZM131.581 66.7224C131.592 65.6152 131.93 65.1556 132.91 65.1556C133.869 65.1556 134.217 65.5421 134.217 66.7224H131.581ZM137.693 71.0361H139.741V66.1374C139.741 66.1374 140.819 65.7719 142.17 65.5212V63.5471C141.004 63.7664 139.73 64.4976 139.73 64.4976V63.7246H137.693V71.0361ZM142.649 63.7246L144.479 71.0361H147.965L149.795 63.7246H147.715L146.44 69.3649H146.004L144.784 63.7246H142.649ZM150.961 71.0361H153.009V63.7246H150.961V71.0361ZM150.961 62.7846H153.009V60.8H150.961V62.7846ZM158.009 63.5471C155.362 63.5471 154.501 65.1138 154.501 67.3699C154.501 69.6156 155.362 71.2137 158.009 71.2137C160.667 71.2137 161.517 69.6156 161.517 67.3699C161.517 65.1138 160.667 63.5471 158.009 63.5471ZM158.009 69.5425C156.887 69.5425 156.582 68.78 156.582 67.3699C156.582 65.9494 156.887 65.2183 158.009 65.2183C159.142 65.2183 159.447 65.9494 159.447 67.3699C159.447 68.78 159.142 69.5425 158.009 69.5425ZM167.508 63.7246V69.1978C167.508 69.1978 166.811 69.459 166.049 69.459C165.046 69.459 164.981 68.8845 164.981 67.5893V63.7246H162.933V67.558C162.933 70.023 163.39 71.2137 165.624 71.2137C166.43 71.2137 167.53 70.6288 167.53 70.6288V71.0361H169.556V63.7246H167.508ZM176.953 63.9335C176.953 63.9335 175.09 63.568 173.99 63.568C172.389 63.568 171.049 64.2469 171.049 65.9494C171.049 67.558 171.92 67.934 173.565 68.1951C174.97 68.4145 175.134 68.5607 175.134 68.8845C175.134 69.271 174.883 69.459 173.903 69.459C173.129 69.459 171.234 69.2187 171.234 69.2187L171.169 70.8586C171.169 70.8586 172.977 71.2137 174.099 71.2137C176.005 71.2137 177.171 70.5557 177.171 68.8427C177.171 67.3699 176.539 66.8686 174.774 66.5657C173.369 66.315 173.075 66.2419 173.075 65.9076C173.075 65.5107 173.26 65.3227 174.143 65.3227C175.036 65.3227 176.92 65.5525 176.92 65.5525L176.953 63.9335Z" fill="black"/>
<path d="M146.598 38.8239C146.566 38.8045 146.359 38.2732 146.359 38.2732L145.404 36.5314L139.267 27.2103V26.4525L148.307 37.2514L148.436 37.7137L148.534 37.7451C148.534 37.7451 148.595 37.7507 148.534 37.7451C149.814 38.0412 150.523 39.1169 150.523 39.1169L150.744 39.5629L151.533 36.6449C151.533 36.6449 160.323 28.6875 161.091 23.2316L158.915 23.7623C158.915 23.7623 156.551 21.565 156.301 20.1248C156.053 18.6846 155.514 13.4558 153.107 12.168C153.107 12.168 151.947 11.9027 151.077 12.3581C151.077 12.3581 147.842 8.90945 143.073 8.98534L142.575 7.12866C142.575 7.12866 127.728 8.18998 127.853 21.7544C127.853 21.7544 127.524 27.1708 130.967 30.4294L130.842 30.1471C130.842 30.1471 131.958 32.1349 130.299 34.1816C130.299 34.1816 128.806 34.144 128.557 35.5835L126.567 38.8421C126.567 38.8421 125.903 38.7656 125.364 39.6375C124.825 40.51 120.844 47.709 120.844 47.709C120.844 47.709 131.751 42.8208 136.313 43.5792C136.313 43.5792 144.731 43.2066 152.778 54.59C152.778 54.59 153.398 46.0035 151.243 44.9805L146.598 38.8239ZM146.474 31.3025L150.289 26.6044H150.58L152.198 26.7938L147.468 32.1355L146.474 31.3025ZM149.377 33.3869L148.257 32.6279L153.233 26.9067H154.768L149.377 33.3869ZM157.961 26.6037C157.961 26.6037 152.073 34.7505 151.284 34.7129C150.496 34.674 150.164 33.9546 150.164 33.9546C150.164 33.9546 156.509 27.3226 156.136 26.9067L157.961 26.6037ZM154.668 21.7908L155.457 23.7686L148.972 22.4877L148.257 20.2064L154.668 21.7908ZM147.925 26.1872L149.377 26.5661L145.644 30.8603L144.689 29.863L147.925 26.1872Z" fill="black"/>
</mask>
<g mask="url(#mask0_8:154)">
<rect x="99.1008" y="7.12866" width="92.5222" height="72.301" fill="black"/>
</g>
</svg>
