<svg width="128" height="128" viewBox="0 0 128 128" fill="none" xmlns="http://www.w3.org/2000/svg">
<path d="M55.7749 61.9494L55.7744 61.9489V59.7852L55.779 59.7913L85.7182 97.2221V97.2216V97.2221L85.7187 97.22L88.5772 89.8759C93.9404 84.2741 111.854 64.58 112.71 50.5891C110.667 51.138 108.721 51.544 106.862 51.842L100.996 42.9066C99.6809 34.2799 96.718 26.6608 91.7311 19.0571L89.9489 16.3399L87.6515 18.6393C87.3535 18.9378 87.0683 19.2353 86.7796 19.5332C86.7289 19.5302 86.6915 19.5322 86.6603 19.5373C82.8684 13.6289 74.8925 9.54566 65.6365 9.54566C65.6294 9.54566 65.6227 9.54669 65.615 9.54669L64.4052 4.60742C64.4052 4.60742 64.3965 4.60845 64.3959 4.60845C64.2091 4.61869 39.0161 6.00825 29.4637 28.0447C28.8314 29.4799 28.2856 31.0184 27.8095 32.6333C27.7792 32.7352 27.7449 32.8324 27.7152 32.9354C27.5463 33.5226 27.4009 34.1375 27.2529 34.7494C27.1879 35.0187 27.1101 35.2737 27.0491 35.5481C27.0143 35.7058 26.9923 35.8568 26.959 36.0135C26.9017 36.2808 26.8576 36.5419 26.8049 36.8071C23.4703 53.5393 28.5303 66.2133 34.3456 74.6403C34.32 77.9463 33.5229 79.9933 32.9407 81.0147C32.8102 81.2231 32.6719 81.4315 32.5229 81.6404H29.349L22.9076 94.6401H20.6875L14.8538 106.412L14.8543 106.412C14.8523 106.417 14.8497 106.421 14.8477 106.425C22.1867 101.797 30.8712 99.1088 40.1891 99.1088C47.4564 99.1088 54.3398 100.744 60.5007 103.657C67.94 107.175 74.3134 112.566 79.0284 119.219C79.8834 120.425 80.6832 121.673 81.4251 122.959H85.8098H94.3741L55.7749 61.9494ZM76.2201 77.9427L73.6913 74.7811L73.8516 74.5753L74.5822 73.6378L84.5309 60.8762C85.9184 61.1046 87.4298 61.3217 89.0308 61.5091L76.6235 77.4251L76.2201 77.9427ZM80.42 83.1933L77.8912 80.0322L78.4555 79.3087L79.6725 77.7477L92.0905 61.8188C93.6532 61.9468 95.268 62.0277 96.8992 62.0564L81.2274 82.1585L80.42 83.1933ZM105.593 61.5428L85.8319 86.8915L84.621 88.4449L82.0922 85.2833L83.0599 84.0417L84.6737 81.9711L100.223 62.0262C102.034 61.9601 103.838 61.8101 105.593 61.5428ZM82.0318 42.7079L82.2504 39.7496L83.5816 40.8166C84.4884 41.5682 86.3899 43.1216 89.1199 44.6253C89.1199 44.6253 89.1204 44.6253 89.1204 44.6259C90.9959 45.6586 93.2589 46.6611 95.8983 47.3666L96.8957 48.8857L98.4941 51.3203L99.2642 52.4927C99.1075 52.4938 98.9554 52.4917 98.8008 52.4912C87.7119 52.4528 81.6109 48.4085 81.6109 48.4085L82.0318 42.7079ZM77.3639 59.4319C78.2205 59.6418 79.6515 59.9715 81.4993 60.3325L81.5961 60.4083L72.3371 72.2851L72.0196 72.6922L69.4909 69.5311L77.3639 59.4319Z" fill="#222222"/>
</svg>
