<svg width="224" height="47" viewBox="0 0 224 47" fill="none" xmlns="http://www.w3.org/2000/svg">
<mask id="mask0_8:132" style="mask-type:alpha" maskUnits="userSpaceOnUse" x="93" y="6" width="37" height="34">
<path d="M93.8043 38.2221H94.8279V33.2917H93.8043V38.2221ZM96.8326 38.2221V35.5083C96.8326 35.5083 97.1668 35.3788 97.4903 35.3788C97.9517 35.3788 98.01 35.7051 98.01 36.3576V38.2221H99.007V36.3421C99.007 36.0624 98.9753 35.5186 98.9753 35.5186C98.9753 35.5186 99.373 35.3788 99.67 35.3788C100.115 35.3788 100.19 35.7362 100.19 36.2851V38.2221H101.181V36.2592C101.181 35.0888 100.884 34.5087 99.8768 34.5087C99.3094 34.5087 98.6305 34.8506 98.6305 34.8506C98.4077 34.6175 98.1161 34.5087 97.7025 34.5087C97.3365 34.5087 96.8221 34.7988 96.8221 34.7988V34.5968H95.8356V38.2221H96.8326ZM102.067 39.7447H103.059V38.2531C103.059 38.2531 103.404 38.3101 103.679 38.3101C104.814 38.3101 105.361 37.9269 105.361 36.3784C105.361 35.0318 104.878 34.5087 103.902 34.5087C103.536 34.5087 103.054 34.7936 103.054 34.7936V34.5968H102.067V39.7447ZM103.706 35.3788C104.098 35.3788 104.353 35.6481 104.353 36.3784C104.353 37.15 104.199 37.4659 103.605 37.4659C103.393 37.4659 103.059 37.4245 103.059 37.4245V35.5238C103.059 35.5238 103.404 35.3788 103.706 35.3788ZM107.673 37.4556C107.137 37.4556 106.93 37.2588 106.92 36.8237H109.105L109.179 36.1505C109.179 35.0525 108.654 34.5087 107.562 34.5087C106.474 34.5087 105.917 35.1716 105.917 36.4612C105.917 37.7663 106.395 38.3101 107.514 38.3101C108.209 38.3101 109.062 38.1081 109.062 38.1081L109.046 37.3882C109.046 37.3882 108.283 37.4556 107.673 37.4556ZM106.915 36.0831C106.92 35.5342 107.084 35.3063 107.562 35.3063C108.028 35.3063 108.198 35.4979 108.198 36.0831H106.915ZM109.89 38.2221H110.887V35.7931C110.887 35.7931 111.412 35.6119 112.07 35.4876V34.5087C111.502 34.6175 110.882 34.98 110.882 34.98V34.5968H109.89V38.2221ZM112.303 34.5968L113.194 38.2221H114.891L115.782 34.5968H114.769L114.148 37.3934H113.936L113.342 34.5968H112.303ZM116.349 38.2221H117.346V34.5968H116.349V38.2221ZM116.349 34.1307H117.346V33.1467H116.349V34.1307ZM119.781 34.5087C118.492 34.5087 118.073 35.2856 118.073 36.4042C118.073 37.5177 118.492 38.3101 119.781 38.3101C121.075 38.3101 121.488 37.5177 121.488 36.4042C121.488 35.2856 121.075 34.5087 119.781 34.5087ZM119.781 37.4815C119.234 37.4815 119.086 37.1034 119.086 36.4042C119.086 35.6999 119.234 35.3374 119.781 35.3374C120.332 35.3374 120.481 35.6999 120.481 36.4042C120.481 37.1034 120.332 37.4815 119.781 37.4815ZM124.405 34.5968V37.3106C124.405 37.3106 124.066 37.44 123.695 37.44C123.207 37.44 123.175 37.1552 123.175 36.513V34.5968H122.178V36.4975C122.178 37.7197 122.401 38.3101 123.488 38.3101C123.88 38.3101 124.416 38.0201 124.416 38.0201V38.2221H125.402V34.5968H124.405ZM129.004 34.7004C129.004 34.7004 128.097 34.5191 127.561 34.5191C126.781 34.5191 126.129 34.8557 126.129 35.6999C126.129 36.4975 126.553 36.6839 127.354 36.8134C128.038 36.9221 128.118 36.9946 128.118 37.1552C128.118 37.3468 127.996 37.44 127.519 37.44C127.142 37.44 126.219 37.3209 126.219 37.3209L126.187 38.134C126.187 38.134 127.068 38.3101 127.614 38.3101C128.542 38.3101 129.11 37.9838 129.11 37.1345C129.11 36.4042 128.802 36.1557 127.943 36.0055C127.259 35.8812 127.115 35.8449 127.115 35.6792C127.115 35.4824 127.206 35.3892 127.635 35.3892C128.07 35.3892 128.988 35.5031 128.988 35.5031L129.004 34.7004Z" fill="black"/>
<path d="M114.225 22.2502C114.21 22.2406 114.109 21.9772 114.109 21.9772L113.644 21.1135L110.656 16.4918V16.1161L115.057 21.4705L115.12 21.6998L115.168 21.7153C115.168 21.7153 115.198 21.7181 115.168 21.7153C115.791 21.8621 116.136 22.3955 116.136 22.3955L116.244 22.6166L116.628 21.1698C116.628 21.1698 120.907 17.2243 121.281 14.519L120.222 14.7822C120.222 14.7822 119.071 13.6927 118.949 12.9786C118.828 12.2645 118.566 9.67188 117.394 9.03336C117.394 9.03336 116.83 8.9018 116.406 9.1276C116.406 9.1276 114.831 7.41764 112.509 7.45527L112.267 6.53467C112.267 6.53467 105.038 7.06091 105.099 13.7866C105.099 13.7866 104.94 16.4722 106.615 18.0879L106.555 17.948C106.555 17.948 107.098 18.9336 106.29 19.9484C106.29 19.9484 105.564 19.9298 105.442 20.6435L104.473 22.2593C104.473 22.2593 104.15 22.2213 103.888 22.6537C103.625 23.0863 101.687 26.6558 101.687 26.6558C101.687 26.6558 106.997 24.232 109.218 24.6081C109.218 24.6081 113.316 24.4233 117.234 30.0676C117.234 30.0676 117.536 25.8101 116.487 25.3029L114.225 22.2502ZM114.165 18.5209L116.022 16.1914H116.164L116.952 16.2853L114.649 18.9339L114.165 18.5209ZM115.578 19.5544L115.033 19.178L117.456 16.3413H118.203L115.578 19.5544ZM119.757 16.1911C119.757 16.1911 116.891 20.2305 116.507 20.2119C116.123 20.1926 115.962 19.8358 115.962 19.8358C115.962 19.8358 119.05 16.5475 118.869 16.3413L119.757 16.1911ZM118.154 13.8046L118.539 14.7853L115.381 14.1502L115.033 13.019L118.154 13.8046ZM114.871 15.9845L115.578 16.1724L113.761 18.3016L113.296 17.8071L114.871 15.9845Z" fill="black"/>
</mask>
<g mask="url(#mask0_8:132)">
<rect x="91.1017" y="6.53467" width="45.0437" height="35.8492" fill="white"/>
</g>
</svg>
