<svg width="224" height="47" viewBox="0 0 224 47" fill="none" xmlns="http://www.w3.org/2000/svg">
<path d="M81.4799 22.6794V22.3895L81.4805 22.3903L85.4893 27.4031V27.4028L85.8719 26.4193C86.5901 25.669 88.9887 23.0316 89.1033 21.158C88.8298 21.2315 88.5692 21.2858 88.3204 21.3258L87.5349 20.1291C87.3587 18.9738 86.9621 17.9535 86.2942 16.9351L86.0556 16.5712L85.7479 16.8791C85.7079 16.9191 85.6698 16.959 85.6313 16.9988C85.6244 16.9983 85.6194 16.9986 85.6153 16.9993C85.1076 16.208 84.0396 15.6613 82.8002 15.6613C82.7992 15.6613 82.7983 15.6614 82.7973 15.6614L82.6353 15C82.6353 15 82.6342 15.0002 82.634 15.0002C82.609 15.0015 79.2358 15.1877 77.9566 18.1388C77.872 18.331 77.799 18.5371 77.7351 18.7533C77.7311 18.7669 77.7265 18.7799 77.7226 18.7938C77.7 18.8724 77.6805 18.9548 77.6608 19.0366C77.6521 19.0728 77.6416 19.1068 77.6335 19.1437C77.6288 19.1648 77.6258 19.185 77.6215 19.206C77.6138 19.2418 77.608 19.2767 77.6008 19.3123C77.1543 21.5532 77.8318 23.2505 78.6104 24.379C78.6069 24.8217 78.5003 25.0959 78.4223 25.2326C78.4048 25.2605 78.3863 25.2885 78.3663 25.3165H77.9413L77.0788 27.0574H76.782L76.0008 28.634C76.0005 28.6347 76.0002 28.6352 76 28.6358C76.9826 28.0161 78.1454 27.656 79.3931 27.656C80.3662 27.656 81.2879 27.875 82.1128 28.2651C83.109 28.7362 83.9623 29.4581 84.5936 30.3491C84.7081 30.5106 84.8153 30.6778 84.9146 30.85H85.5018H86.6484L81.4799 22.6794ZM84.2175 24.8212L83.8788 24.3978L83.9003 24.3703L83.9981 24.2448L85.3303 22.5357C85.5161 22.5662 85.7184 22.5954 85.9327 22.6204L84.2715 24.7519L84.2175 24.8212ZM84.7798 25.5243L84.4411 25.1009L84.5166 25.0041L84.6796 24.795L86.3424 22.6619C86.5516 22.679 86.7679 22.6899 86.9862 22.6937L84.8878 25.3858L84.7798 25.5243ZM88.1504 22.625L85.5044 26.0197L85.3423 26.2278L85.0036 25.8044L85.1333 25.6382L85.3494 25.3608L87.4314 22.6897C87.6739 22.6809 87.9154 22.6607 88.1504 22.625ZM84.9956 20.1025L85.0248 19.7062L85.2031 19.8491C85.3246 19.9498 85.5791 20.1578 85.9447 20.3592C85.9447 20.3592 85.9447 20.3592 85.9449 20.3592C86.1961 20.4975 86.4991 20.6317 86.8524 20.7262L86.9859 20.9296L87.1999 21.2557L87.3029 21.4127C87.2819 21.4128 87.2615 21.4125 87.2409 21.4125C85.7561 21.4073 84.9393 20.8658 84.9393 20.8658L84.9956 20.1025ZM84.3706 22.3423C84.4853 22.3703 84.6769 22.4147 84.9243 22.4628L84.9373 22.473L83.6975 24.0636L83.655 24.1181L83.3163 23.6947L84.3706 22.3423Z" fill="white"/>
<path d="M94.3798 20.5948H93.1758V25.2547H94.3798V20.5948Z" fill="white"/>
<path d="M99.1089 24.1662H99.0817L97.6329 20.5948H95.9053V25.2547H96.9527V21.8735H96.9799L98.3742 25.2547H99.6802L101.068 21.8735H101.095V25.2547H102.299V20.5948H100.578L99.1089 24.1662Z" fill="white"/>
<path d="M108.2 21.0027C107.751 20.6355 107.078 20.5948 106.173 20.5948H103.827V25.2547H105.031V24.2169V23.9417V23.0507V22.0536V21.4858H106.139C106.955 21.4858 107.466 21.547 107.466 22.2546C107.466 22.8805 107.098 23.0506 106.153 23.0506H105.73V23.9415H105.901C107.044 23.9415 107.643 23.8942 108.146 23.52C108.52 23.2546 108.69 22.8259 108.69 22.2409C108.69 21.69 108.533 21.2751 108.2 21.0027Z" fill="white"/>
<path d="M111.108 23.3226H113.624V22.4248H111.108V21.5198H113.829V20.5948H109.904V25.2547H113.944V24.3228H111.108V23.3226Z" fill="white"/>
<path d="M119.483 23.2614C119.85 23.0097 120.02 22.6493 120.02 22.0983C120.02 21.5812 119.864 21.2206 119.524 20.9691C119.075 20.6355 118.415 20.5948 117.504 20.5948H115.239V25.2547H116.443V24.2169V23.6562V22.8059V22.0536V21.4858H117.511C118.306 21.4858 118.796 21.5268 118.796 22.1323C118.796 22.69 118.429 22.8059 117.524 22.8059H117.142V23.6562C117.142 23.6562 117.436 23.6562 117.545 23.6492L118.789 25.2547H120.245L118.857 23.5131C119.102 23.4656 119.313 23.384 119.483 23.2614Z" fill="white"/>
<path d="M123.683 24.1527H123.649L121.983 20.5948H120.629L122.963 25.2547H124.309L126.635 20.5948H125.343L123.683 24.1527Z" fill="white"/>
<path d="M128.693 20.5948H127.489V25.2547H128.693V20.5948Z" fill="white"/>
<path d="M135.101 20.9691C134.537 20.6015 133.816 20.4995 132.884 20.4995C131.966 20.4995 131.238 20.5949 130.673 20.9691C130.034 21.3907 129.816 22.0983 129.816 22.9214C129.816 23.7515 130.034 24.4453 130.673 24.8672C131.164 25.1983 131.775 25.3174 132.538 25.3433V24.3963C131.511 24.3154 131.048 23.8524 131.048 22.8872C131.048 21.792 131.626 21.4382 132.891 21.4382C134.162 21.4382 134.727 21.8874 134.727 22.9554C134.727 23.9414 134.25 24.3301 133.237 24.3981V25.3431C133.993 25.3176 134.61 25.1991 135.101 24.8735C135.734 24.4451 135.958 23.7514 135.958 22.9212C135.958 22.0983 135.734 21.3975 135.101 20.9691Z" fill="white"/>
<path d="M140.955 23.1663C140.955 23.554 140.901 23.8534 140.697 24.0644C140.466 24.3228 140.064 24.4111 139.581 24.4111C139.105 24.4111 138.697 24.3093 138.466 24.0574C138.255 23.8262 138.194 23.5131 138.194 23.1184V20.5948H136.99V23.2073C136.99 23.9692 137.085 24.4998 137.547 24.8602C138.078 25.2754 138.779 25.3501 139.568 25.3501C140.35 25.3501 141.037 25.2753 141.574 24.8602C142.043 24.4998 142.139 23.9692 142.139 23.2073V20.5948H140.955V23.1663H140.955Z" fill="white"/>
<path d="M145.713 22.3705C145.379 22.316 145.005 22.2683 144.747 22.2001C144.522 22.1458 144.44 22.0369 144.44 21.8397C144.44 21.6559 144.509 21.5403 144.733 21.4858C144.944 21.4452 145.223 21.4315 145.467 21.4315C146.005 21.4315 146.678 21.4792 147.223 21.5403V20.5744C146.617 20.5337 146.053 20.4995 145.488 20.4995C144.998 20.4995 144.44 20.5335 144.032 20.7307C143.495 20.9891 143.298 21.4315 143.298 21.9757C143.298 22.8532 143.822 23.1798 145.019 23.3771C145.372 23.4383 145.767 23.4927 146.032 23.5608C146.263 23.629 146.345 23.7379 146.345 23.9486C146.345 24.1458 146.29 24.2751 146.046 24.3296C145.841 24.3703 145.488 24.3975 145.08 24.3975C144.583 24.3975 143.869 24.3431 143.311 24.2819V25.2751C143.991 25.3158 144.604 25.3499 145.236 25.3499C145.76 25.3499 146.358 25.2954 146.773 25.0912C147.311 24.8262 147.515 24.377 147.515 23.8125C147.515 22.8671 146.91 22.5542 145.713 22.3705Z" fill="white"/>
</svg>
