<svg width="22" height="27" viewBox="0 0 22 27" fill="none" xmlns="http://www.w3.org/2000/svg">
<path d="M8.71463 12.4077L8.71454 12.4076V12.0526L8.7153 12.0536L13.6272 18.1946V18.1945V18.1946L13.6273 18.1943L14.0963 16.9894C14.9762 16.0703 17.9151 12.8393 18.0556 10.5439C17.7204 10.6339 17.4011 10.7005 17.0961 10.7494L16.1338 9.28345C15.918 7.86814 15.4319 6.61813 14.6137 5.37065L14.3213 4.92486L13.9444 5.3021C13.8955 5.35108 13.8487 5.39988 13.8013 5.44877C13.793 5.44826 13.7869 5.4486 13.7818 5.44944C13.1597 4.48008 11.8511 3.81018 10.3325 3.81018C10.3314 3.81018 10.3303 3.81035 10.329 3.81035L10.1305 3C10.1305 3 10.1291 3.00017 10.129 3.00017C10.0984 3.00185 5.96514 3.22982 4.39795 6.84518C4.29421 7.08064 4.20466 7.33306 4.12654 7.59799C4.12159 7.61471 4.11596 7.63067 4.11109 7.64755C4.08337 7.7439 4.05951 7.84478 4.03524 7.94516C4.02457 7.98935 4.0118 8.03118 4.0018 8.0762C3.99609 8.10208 3.99248 8.12686 3.98702 8.15256C3.97761 8.19641 3.97039 8.23925 3.96174 8.28276C3.41464 11.0279 4.24482 13.1072 5.19889 14.4898C5.19469 15.0322 5.0639 15.368 4.96839 15.5356C4.94697 15.5698 4.92429 15.6039 4.89985 15.6382H4.37913L3.32233 17.771H2.9581L2.00101 19.7024L2.00109 19.7023C2.00076 19.7031 2.00034 19.7037 2 19.7045C3.20406 18.9451 4.62886 18.5041 6.15758 18.5041C7.34988 18.5041 8.47917 18.7724 9.48994 19.2504C10.7105 19.8275 11.7561 20.7119 12.5297 21.8034C12.6699 22.0014 12.8011 22.2061 12.9229 22.4171H13.6422H15.0473L8.71463 12.4077ZM12.0689 15.0316L11.654 14.5129L11.6803 14.4791L11.8002 14.3253L13.4324 12.2316C13.66 12.2691 13.908 12.3047 14.1707 12.3354L12.1351 14.9466L12.0689 15.0316ZM12.758 15.893L12.3431 15.3744L12.4357 15.2557L12.6353 14.9996L14.6727 12.3862C14.929 12.4072 15.194 12.4205 15.4616 12.4252L12.8904 15.7232L12.758 15.893ZM16.8879 12.341L13.6458 16.4997L13.4472 16.7546L13.0323 16.2359L13.1911 16.0322L13.4558 15.6925L16.0068 12.4203C16.304 12.4094 16.6 12.3848 16.8879 12.341ZM13.0224 9.25086L13.0583 8.76551L13.2767 8.94056C13.4254 9.06388 13.7374 9.31873 14.1853 9.56544C14.1853 9.56544 14.1854 9.56544 14.1854 9.56552C14.4931 9.73495 14.8643 9.89942 15.2974 10.0152L15.461 10.2644L15.7232 10.6638L15.8496 10.8562C15.8239 10.8564 15.7989 10.856 15.7736 10.8559C13.9543 10.8496 12.9533 10.1861 12.9533 10.1861L13.0224 9.25086ZM12.2566 11.9946C12.3971 12.0291 12.6319 12.0832 12.935 12.1424L12.9509 12.1548L11.4319 14.1034L11.3798 14.1702L10.9649 13.6515L12.2566 11.9946Z" fill="#222222"/>
</svg>
