<svg width="24" height="24" viewBox="0 0 24 24" fill="none" xmlns="http://www.w3.org/2000/svg">
<g clip-path="url(#clip0_206_71)">
<path d="M12 24C18.6274 24 24 18.6274 24 12C24 5.37258 18.6274 0 12 0C5.37258 0 0 5.37258 0 12C0 18.6274 5.37258 24 12 24Z" fill="white"/>
<path d="M10.9719 11.7437L10.9718 11.7436V11.4731L10.9724 11.4739L14.7148 16.1528V16.1527V16.1528L14.7148 16.1525L15.0721 15.2345C15.7425 14.5343 17.9818 12.0725 18.0888 10.3236C17.8334 10.3922 17.5901 10.443 17.3578 10.4802L16.6245 9.36332C16.4601 8.28498 16.0898 7.3326 15.4664 6.38214L15.2436 6.04249L14.9564 6.32991C14.9192 6.36722 14.8835 6.40441 14.8474 6.44166C14.8411 6.44127 14.8364 6.44153 14.8325 6.44217C14.3586 5.70361 13.3616 5.19321 12.2046 5.19321C12.2037 5.19321 12.2028 5.19334 12.2019 5.19334L12.0506 4.57593C12.0506 4.57593 12.0496 4.57606 12.0495 4.57606C12.0261 4.57734 8.87701 4.75103 7.68297 7.50559C7.60393 7.68498 7.5357 7.8773 7.47618 8.07916C7.47241 8.0919 7.46812 8.10406 7.46441 8.11692C7.44329 8.19033 7.42511 8.26719 7.40661 8.34367C7.39849 8.37734 7.38876 8.40921 7.38114 8.44351C7.37679 8.46322 7.37404 8.4821 7.36988 8.50169C7.36271 8.5351 7.35721 8.56774 7.35061 8.60089C6.93378 10.6924 7.56629 12.2767 8.29321 13.33C8.29001 13.7433 8.19036 13.9992 8.11759 14.1268C8.10127 14.1529 8.08399 14.1789 8.06537 14.205H7.66863L6.86345 15.83H6.58594L5.85673 17.3016L5.85679 17.3015C5.85653 17.3021 5.85621 17.3026 5.85596 17.3032C6.77333 16.7246 7.8589 16.3886 9.02364 16.3886C9.93205 16.3886 10.7925 16.593 11.5626 16.9572C12.4925 17.3969 13.2892 18.0707 13.8786 18.9023C13.9854 19.0532 14.0854 19.2091 14.1781 19.3699H14.7262H15.7968L10.9719 11.7437ZM13.5275 13.7428L13.2114 13.3476L13.2314 13.3219L13.3228 13.2047L14.5664 11.6095C14.7398 11.6381 14.9287 11.6652 15.1289 11.6886L13.5779 13.6781L13.5275 13.7428ZM14.0525 14.3992L13.7364 14.004L13.8069 13.9136L13.9591 13.7185L15.5113 11.7274C15.7066 11.7434 15.9085 11.7535 16.1124 11.757L14.1534 14.2698L14.0525 14.3992ZM17.1991 11.6929L14.729 14.8614L14.5776 15.0556L14.2615 14.6604L14.3825 14.5052L14.5842 14.2464L16.5278 11.7533C16.7543 11.745 16.9797 11.7263 17.1991 11.6929ZM14.254 9.33849L14.2813 8.9687L14.4477 9.10207C14.561 9.19602 14.7987 9.3902 15.14 9.57817C15.14 9.57817 15.1401 9.57817 15.1401 9.57823C15.3745 9.70732 15.6574 9.83263 15.9873 9.92082L16.112 10.1107L16.3118 10.415L16.408 10.5616C16.3884 10.5617 16.3694 10.5615 16.3501 10.5614C14.964 10.5566 14.2014 10.0511 14.2014 10.0511L14.254 9.33849ZM13.6705 11.429C13.7776 11.4552 13.9564 11.4964 14.1874 11.5416L14.1995 11.551L13.0421 13.0356L13.0025 13.0865L12.6864 12.6914L13.6705 11.429Z" fill="#222222"/>
</g>
<defs>
<clipPath id="clip0_206_71">
<rect width="24" height="24" fill="white"/>
</clipPath>
</defs>
</svg>
