<svg width="370" height="471" viewBox="0 0 370 471" fill="none" xmlns="http://www.w3.org/2000/svg">
<mask id="mask0_206_62" style="mask-type:alpha" maskUnits="userSpaceOnUse" x="0" y="0" width="370" height="471">
<rect width="369.54" height="470.01" fill="#D9D9D9"/>
</mask>
<g mask="url(#mask0_206_62)">
<path d="M144.299 218.594L144.297 218.592V211.831L144.311 211.85L237.871 328.821V328.819V328.821L237.873 328.815L246.806 305.864C263.566 288.359 319.547 226.815 322.222 183.093C315.838 184.808 309.755 186.077 303.947 187.008L285.615 159.085C281.505 132.127 272.246 108.317 256.662 84.5554L251.092 76.0642L243.913 83.2497C242.982 84.1825 242.091 85.1122 241.188 86.0434C241.03 86.0338 240.913 86.0402 240.815 86.0562C228.966 67.5922 204.041 54.8322 175.116 54.8322C175.094 54.8322 175.073 54.8354 175.049 54.8354L171.268 39.4001C171.268 39.4001 171.241 39.4033 171.239 39.4033C170.655 39.4353 91.9273 43.7777 62.0761 112.642C60.1001 117.127 58.3945 121.935 56.9065 126.981C56.8121 127.299 56.7049 127.603 56.6121 127.925C56.0841 129.76 55.6297 131.682 55.1673 133.594C54.9641 134.435 54.7209 135.232 54.5305 136.09C54.4217 136.583 54.3529 137.055 54.2489 137.544C54.0697 138.379 53.9321 139.195 53.7673 140.024C43.3465 192.312 59.1593 231.919 77.3321 258.253C77.2521 268.584 74.7609 274.981 72.9417 278.173C72.5337 278.824 72.1017 279.475 71.6361 280.128H61.7177L41.5881 320.752H34.6505L16.4201 357.541L16.4217 357.539C16.4153 357.554 16.4073 357.567 16.4009 357.581C39.3353 343.117 66.4745 334.717 95.5929 334.717C118.303 334.717 139.814 339.827 159.066 348.931C182.314 359.923 202.231 376.77 216.966 397.56C219.638 401.331 222.137 405.231 224.455 409.25H238.158H264.921L144.299 218.594ZM208.19 268.573L200.287 258.693L200.788 258.05L203.071 255.12L234.161 215.24C238.497 215.954 243.22 216.632 248.223 217.218L209.451 266.955L208.19 268.573ZM221.314 284.981L213.412 275.103L215.175 272.842L218.978 267.963L257.785 218.186C262.668 218.586 267.714 218.839 272.812 218.928L223.838 281.747L221.314 284.981ZM299.98 217.323L238.226 296.538L234.443 301.392L226.54 291.512L229.564 287.632L234.607 281.162L283.198 218.834C288.858 218.627 294.495 218.159 299.98 217.323ZM226.351 158.464L227.035 149.219L231.195 152.554C234.028 154.903 239.97 159.757 248.502 164.456C248.502 164.456 248.503 164.456 248.503 164.458C254.364 167.685 261.436 170.818 269.684 173.023L272.801 177.77L277.796 185.378L280.203 189.042C279.713 189.045 279.238 189.039 278.754 189.037C244.102 188.917 225.036 176.279 225.036 176.279L226.351 158.464ZM211.764 210.727C214.441 211.383 218.913 212.413 224.687 213.541L224.99 213.778L196.055 250.893L195.063 252.165L187.161 242.287L211.764 210.727Z" fill="#222222"/>
</g>
</svg>
